<svg width="108" height="83" viewBox="0 0 108 83" fill="none" xmlns="http://www.w3.org/2000/svg">
<ellipse rx="46" ry="34.5" transform="matrix(-1 0 0 1 56 37.5)" fill="white"/>
<g filter="url(#filter0_d_16_72)">
<path d="M59.3571 37.5C59.3571 38.5656 58.7927 39.5876 57.788 40.3411C56.7834 41.0945 55.4208 41.5179 54 41.5179C52.5792 41.5179 51.2166 41.0945 50.212 40.3411C49.2073 39.5876 48.6429 38.5656 48.6429 37.5C48.6429 36.4344 49.2073 35.4124 50.212 34.6589C51.2166 33.9055 52.5792 33.4821 54 33.4821C55.4208 33.4821 56.7834 33.9055 57.788 34.6589C58.7927 35.4124 59.3571 36.4344 59.3571 37.5ZM37.0359 37.5C37.0359 38.5656 36.4715 39.5876 35.4669 40.3411C34.4622 41.0945 33.0996 41.5179 31.6788 41.5179C30.258 41.5179 28.8955 41.0945 27.8908 40.3411C26.8862 39.5876 26.3218 38.5656 26.3218 37.5C26.3218 36.4344 26.8862 35.4124 27.8908 34.6589C28.8955 33.9055 30.258 33.4821 31.6788 33.4821C33.0996 33.4821 34.4622 33.9055 35.4669 34.6589C36.4715 35.4124 37.0359 36.4344 37.0359 37.5ZM81.6782 37.5C81.6782 38.5656 81.1138 39.5876 80.1092 40.3411C79.1045 41.0945 77.7419 41.5179 76.3211 41.5179C74.9004 41.5179 73.5378 41.0945 72.5331 40.3411C71.5285 39.5876 70.9641 38.5656 70.9641 37.5C70.9641 36.4344 71.5285 35.4124 72.5331 34.6589C73.5378 33.9055 74.9004 33.4821 76.3211 33.4821C77.7419 33.4821 79.1045 33.9055 80.1092 34.6589C81.1138 35.4124 81.6782 36.4344 81.6782 37.5ZM7.88449 22.9688C10.4068 18.4738 14.0228 14.4392 18.6321 10.9738C23.2092 7.52843 28.6428 4.7898 34.6252 2.91295C40.7635 0.979353 47.2813 0 54 0H54.2232C60.9865 0.0251116 67.5378 1.02958 73.6984 3.00502C79.6296 4.90113 85.0123 7.64462 89.5464 11.0826C94.1111 14.5396 97.6936 18.5575 100.171 23.0357C102.738 27.673 104.033 32.6032 103.999 37.6758C103.961 43.4889 102.128 49.2163 98.6423 54.4085V67.1317C98.6423 68.1529 98.1014 69.1323 97.1386 69.8544C96.1758 70.5765 94.87 70.9821 93.5084 70.9821H76.5332C69.6104 73.5963 61.9739 74.9716 54.2232 75H53.9888C47.3036 75 40.8194 74.029 34.7145 72.1289C28.7623 70.2744 23.349 67.5677 18.7772 64.1602C14.1679 60.7366 10.5407 56.7355 8.00726 52.274C5.37336 47.6535 4.03409 42.74 4.00061 37.6674C3.96712 32.5698 5.28407 27.6228 7.88449 22.9688ZM24.7481 59.6317C32.5717 65.4408 42.951 68.6384 54 68.6384H54.1897C60.9195 68.6133 67.6047 67.3577 73.5087 64.9972L74.4462 64.6205H90.1603V52.8348L90.6625 52.1317C93.8098 47.7037 95.4838 42.6897 95.5173 37.6423C95.562 29.2969 91.3098 21.4621 83.5085 15.5608C75.7185 9.6596 65.3057 6.39509 54.1786 6.36161H53.9888C48.4085 6.36161 42.9957 7.17355 37.8953 8.78069C32.9177 10.346 28.4534 12.5977 24.6142 15.4771C20.7861 18.3482 17.7728 21.7048 15.6857 25.4381C13.5206 29.3052 12.438 33.4068 12.4603 37.6423C12.5273 45.9794 16.8911 53.7891 24.7481 59.6317Z" fill="#8FC9B8"/>
</g>
<ellipse rx="5.5" ry="4.125" transform="matrix(-1 0 0 1 76.5 37.125)" fill="black"/>
<ellipse rx="5.5" ry="4.125" transform="matrix(-1 0 0 1 76.5 37.125)" fill="black"/>
<ellipse rx="5.5" ry="4.125" transform="matrix(-1 0 0 1 76.5 37.125)" fill="black"/>
<ellipse rx="5.5" ry="4.125" transform="matrix(-1 0 0 1 53.5 37.125)" fill="black"/>
<ellipse rx="5.5" ry="4.125" transform="matrix(-1 0 0 1 53.5 37.125)" fill="black"/>
<ellipse rx="5.5" ry="4.125" transform="matrix(-1 0 0 1 53.5 37.125)" fill="black"/>
<ellipse rx="5.5" ry="4.125" transform="matrix(-1 0 0 1 31.5 37.125)" fill="black"/>
<ellipse rx="5.5" ry="4.125" transform="matrix(-1 0 0 1 31.5 37.125)" fill="black"/>
<ellipse rx="5.5" ry="4.125" transform="matrix(-1 0 0 1 31.5 37.125)" fill="black"/>
<defs>
<filter id="filter0_d_16_72" x="0" y="0" width="108" height="83" filterUnits="userSpaceOnUse" color-interpolation-filters="sRGB">
<feFlood flood-opacity="0" result="BackgroundImageFix"/>
<feColorMatrix in="SourceAlpha" type="matrix" values="0 0 0 0 0 0 0 0 0 0 0 0 0 0 0 0 0 0 127 0" result="hardAlpha"/>
<feOffset dy="4"/>
<feGaussianBlur stdDeviation="2"/>
<feComposite in2="hardAlpha" operator="out"/>
<feColorMatrix type="matrix" values="0 0 0 0 0 0 0 0 0 0 0 0 0 0 0 0 0 0 0.25 0"/>
<feBlend mode="normal" in2="BackgroundImageFix" result="effect1_dropShadow_16_72"/>
<feBlend mode="normal" in="SourceGraphic" in2="effect1_dropShadow_16_72" result="shape"/>
</filter>
</defs>
</svg>
