<svg width="70" height="56" viewBox="0 0 70 56" fill="none" xmlns="http://www.w3.org/2000/svg">
<ellipse cx="33.76" cy="24" rx="28.52" ry="22.08" fill="white"/>
<g filter="url(#filter0_d_16_66)">
<path d="M31.6786 24C31.6786 24.682 32.0285 25.336 32.6514 25.8183C33.2743 26.3005 34.1191 26.5714 35 26.5714C35.8809 26.5714 36.7257 26.3005 37.3486 25.8183C37.9715 25.336 38.3214 24.682 38.3214 24C38.3214 23.318 37.9715 22.664 37.3486 22.1817C36.7257 21.6995 35.8809 21.4286 35 21.4286C34.1191 21.4286 33.2743 21.6995 32.6514 22.1817C32.0285 22.664 31.6786 23.318 31.6786 24ZM45.5177 24C45.5177 24.682 45.8677 25.336 46.4905 25.8183C47.1134 26.3005 47.9582 26.5714 48.8391 26.5714C49.72 26.5714 50.5648 26.3005 51.1877 25.8183C51.8106 25.336 52.1605 24.682 52.1605 24C52.1605 23.318 51.8106 22.664 51.1877 22.1817C50.5648 21.6995 49.72 21.4286 48.8391 21.4286C47.9582 21.4286 47.1134 21.6995 46.4905 22.1817C45.8677 22.664 45.5177 23.318 45.5177 24ZM17.8395 24C17.8395 24.682 18.1894 25.336 18.8123 25.8183C19.4352 26.3005 20.28 26.5714 21.1609 26.5714C22.0418 26.5714 22.8866 26.3005 23.5095 25.8183C24.1323 25.336 24.4823 24.682 24.4823 24C24.4823 23.318 24.1323 22.664 23.5095 22.1817C22.8866 21.6995 22.0418 21.4286 21.1609 21.4286C20.28 21.4286 19.4352 21.6995 18.8123 22.1817C18.1894 22.664 17.8395 23.318 17.8395 24ZM63.5916 14.7C62.0278 11.8232 59.7859 9.24107 56.9281 7.02321C54.0903 4.8182 50.7215 3.06547 47.0124 1.86429C43.2066 0.626786 39.1656 0 35 0H34.8616C30.6684 0.0160714 26.6066 0.658929 22.787 1.92321C19.1096 3.13672 15.7724 4.89256 12.9612 7.09286C10.1311 9.30536 7.90994 11.8768 6.3738 14.7429C4.7823 17.7107 3.97963 20.8661 4.00039 24.1125C4.02387 27.8329 5.16075 31.4984 7.32178 34.8214V42.9643C7.32178 43.6179 7.65713 44.2447 8.25406 44.7068C8.85099 45.1689 9.66059 45.4286 10.5048 45.4286H21.0294C25.3216 47.1017 30.0562 47.9818 34.8616 48H35.0069C39.1517 48 43.172 47.3786 46.957 46.1625C50.6474 44.9756 54.0036 43.2433 56.8381 41.0625C59.6959 38.8714 61.9448 36.3107 63.5155 33.4554C65.1485 30.4982 65.9789 27.3536 65.9996 24.1071C66.0204 20.8446 65.2039 17.6786 63.5916 14.7ZM53.1362 38.1643C48.2855 41.8821 41.8504 43.9286 35 43.9286H34.8824C30.7099 43.9125 26.5651 43.1089 22.9046 41.5982L22.3234 41.3571H12.5806V33.8143L12.2693 33.3643C10.3179 30.5304 9.28001 27.3214 9.25926 24.0911C9.23158 18.75 11.8679 13.7357 16.7047 9.95893C21.5345 6.18214 27.9905 4.09286 34.8893 4.07143H35.0069C38.4667 4.07143 41.8227 4.59107 44.9849 5.61964C48.071 6.62143 50.8389 8.0625 53.2192 9.90536C55.5926 11.7429 57.4609 13.8911 58.7548 16.2804C60.0972 18.7554 60.7684 21.3804 60.7546 24.0911C60.7131 29.4268 58.0075 34.425 53.1362 38.1643Z" fill="#B81A64"/>
</g>
<ellipse cx="21.05" cy="23.76" rx="3.41" ry="2.64" fill="black"/>
<ellipse cx="21.05" cy="23.76" rx="3.41" ry="2.64" fill="black"/>
<ellipse cx="21.05" cy="23.76" rx="3.41" ry="2.64" fill="black"/>
<ellipse cx="35.31" cy="23.76" rx="3.41" ry="2.64" fill="black"/>
<ellipse cx="35.31" cy="23.76" rx="3.41" ry="2.64" fill="black"/>
<ellipse cx="35.31" cy="23.76" rx="3.41" ry="2.64" fill="black"/>
<ellipse cx="48.95" cy="23.76" rx="3.41" ry="2.64" fill="black"/>
<ellipse cx="48.95" cy="23.76" rx="3.41" ry="2.64" fill="black"/>
<ellipse cx="48.95" cy="23.76" rx="3.41" ry="2.64" fill="black"/>
<defs>
<filter id="filter0_d_16_66" x="0" y="0" width="70" height="56" filterUnits="userSpaceOnUse" color-interpolation-filters="sRGB">
<feFlood flood-opacity="0" result="BackgroundImageFix"/>
<feColorMatrix in="SourceAlpha" type="matrix" values="0 0 0 0 0 0 0 0 0 0 0 0 0 0 0 0 0 0 127 0" result="hardAlpha"/>
<feOffset dy="4"/>
<feGaussianBlur stdDeviation="2"/>
<feComposite in2="hardAlpha" operator="out"/>
<feColorMatrix type="matrix" values="0 0 0 0 0 0 0 0 0 0 0 0 0 0 0 0 0 0 0.25 0"/>
<feBlend mode="normal" in2="BackgroundImageFix" result="effect1_dropShadow_16_66"/>
<feBlend mode="normal" in="SourceGraphic" in2="effect1_dropShadow_16_66" result="shape"/>
</filter>
</defs>
</svg>
