<svg width="142" height="120" viewBox="0 0 142 120" fill="none" xmlns="http://www.w3.org/2000/svg">
<ellipse cx="68.32" cy="56" rx="61.64" ry="51.52" fill="white"/>
<g filter="url(#filter0_d_16_65)">
<path d="M63.8215 56C63.8215 57.5913 64.5778 59.1174 65.9241 60.2426C67.2703 61.3679 69.0962 62 71 62C72.9039 62 74.7297 61.3679 76.076 60.2426C77.4222 59.1174 78.1785 57.5913 78.1785 56C78.1785 54.4087 77.4222 52.8826 76.076 51.7574C74.7297 50.6321 72.9039 50 71 50C69.0962 50 67.2703 50.6321 65.9241 51.7574C64.5778 52.8826 63.8215 54.4087 63.8215 56ZM93.7319 56C93.7319 57.5913 94.4882 59.1174 95.8344 60.2426C97.1806 61.3679 99.0065 62 100.91 62C102.814 62 104.64 61.3679 105.986 60.2426C107.333 59.1174 108.089 57.5913 108.089 56C108.089 54.4087 107.333 52.8826 105.986 51.7574C104.64 50.6321 102.814 50 100.91 50C99.0065 50 97.1806 50.6321 95.8344 51.7574C94.4882 52.8826 93.7319 54.4087 93.7319 56ZM33.9112 56C33.9112 57.5913 34.6675 59.1174 36.0137 60.2426C37.3599 61.3679 39.1858 62 41.0897 62C42.9935 62 44.8194 61.3679 46.1656 60.2426C47.5118 59.1174 48.2682 57.5913 48.2682 56C48.2682 54.4087 47.5118 52.8826 46.1656 51.7574C44.8194 50.6321 42.9935 50 41.0897 50C39.1858 50 37.3599 50.6321 36.0137 51.7574C34.6675 52.8826 33.9112 54.4087 33.9112 56ZM132.795 34.3C129.415 27.5875 124.569 21.5625 118.393 16.3875C112.26 11.2425 104.979 7.15277 96.9622 4.35C88.7368 1.4625 80.003 0 71 0H70.7009C61.6381 0.0375 52.8594 1.5375 44.6041 4.4875C36.6563 7.31902 29.4435 11.416 23.3678 16.55C17.2511 21.7125 12.4505 27.7125 9.13047 34.4C5.69078 41.325 3.95598 48.6875 4.00085 56.2625C4.0516 64.9434 6.50871 73.4963 11.1793 81.25V100.25C11.1793 101.775 11.9041 103.238 13.1943 104.316C14.4844 105.394 16.2342 106 18.0587 106H40.8055C50.0821 109.904 60.315 111.958 70.7009 112H71.015C79.9731 112 88.6621 110.55 96.8425 107.713C104.819 104.943 112.072 100.901 118.199 95.8125C124.375 90.7 129.235 84.725 132.63 78.0625C136.16 71.1625 137.954 63.825 137.999 56.25C138.044 48.6375 136.279 41.25 132.795 34.3ZM110.198 89.05C99.7139 97.725 85.8056 102.5 71 102.5H70.7458C61.7278 102.463 52.7697 100.588 44.8584 97.0625L43.6021 96.5H22.5453V78.9L21.8723 77.85C17.6549 71.2375 15.4116 63.75 15.3668 56.2125C15.307 43.75 21.0049 32.05 31.4585 23.2375C41.8972 14.425 55.8504 9.55 70.7607 9.5H71.015C78.4925 9.5 85.7458 10.7125 92.5803 13.1125C99.2503 15.45 105.232 18.8125 110.377 23.1125C115.507 27.4 119.544 32.4125 122.341 37.9875C125.242 43.7625 126.693 49.8875 126.663 56.2125C126.573 68.6625 120.726 80.325 110.198 89.05Z" fill="#ADA11D"/>
</g>
<ellipse cx="40.85" cy="55.44" rx="7.37" ry="6.16" fill="black"/>
<ellipse cx="40.85" cy="55.44" rx="7.37" ry="6.16" fill="black"/>
<ellipse cx="40.85" cy="55.44" rx="7.37" ry="6.16" fill="black"/>
<ellipse cx="71.67" cy="55.44" rx="7.37" ry="6.16" fill="black"/>
<ellipse cx="71.67" cy="55.44" rx="7.37" ry="6.16" fill="black"/>
<ellipse cx="71.67" cy="55.44" rx="7.37" ry="6.16" fill="black"/>
<ellipse cx="101.15" cy="55.44" rx="7.37" ry="6.16" fill="black"/>
<ellipse cx="101.15" cy="55.44" rx="7.37" ry="6.16" fill="black"/>
<ellipse cx="101.15" cy="55.44" rx="7.37" ry="6.16" fill="black"/>
<defs>
<filter id="filter0_d_16_65" x="0" y="0" width="142" height="120" filterUnits="userSpaceOnUse" color-interpolation-filters="sRGB">
<feFlood flood-opacity="0" result="BackgroundImageFix"/>
<feColorMatrix in="SourceAlpha" type="matrix" values="0 0 0 0 0 0 0 0 0 0 0 0 0 0 0 0 0 0 127 0" result="hardAlpha"/>
<feOffset dy="4"/>
<feGaussianBlur stdDeviation="2"/>
<feComposite in2="hardAlpha" operator="out"/>
<feColorMatrix type="matrix" values="0 0 0 0 0 0 0 0 0 0 0 0 0 0 0 0 0 0 0.25 0"/>
<feBlend mode="normal" in2="BackgroundImageFix" result="effect1_dropShadow_16_65"/>
<feBlend mode="normal" in="SourceGraphic" in2="effect1_dropShadow_16_65" result="shape"/>
</filter>
</defs>
</svg>
